[Header]
FileType HTR
DataType HTRS
FileVersion 1
NumSegments 22
NumFrames 8
DataFrameRate 24
EulerRotationOrder ZYX
CalibrationUnits mm
RotationUnits Degrees
GlobalAxisofGravity Y
BoneLengthAxis Y
ScaleFactor 1.0
[SegmentNames&Hierarchy]
reference	GLOBAL
Hips	reference
Spine	Hips
Spine1	Spine
Neck	Spine1
Head	Neck
LeftShoulder	Spine1
LeftArm	LeftShoulder
LeftForeArm	LeftArm
LeftHand	LeftForeArm
RightShoulder	Spine1
RightArm	RightShoulder
RightForeArm	RightArm
RightHand	RightForeArm
LeftUpLeg	Hips
LeftLeg	LeftUpLeg
LeftFoot	LeftLeg
LeftToeBase	LeftFoot
RightUpLeg	Hips
RightLeg	RightUpLeg
RightFoot	RightLeg
RightToeBase	RightFoot
[BasePosition]
reference	0	0	0	0	0	0	1
Hips	0	0	0	0	0	0	1
Spine	0	0	0	0	-0	90	1
Spine1	0	0	0	0	0	0	1
Neck	0	0	0	-7.352327771	-7.352327771	90	1
Head	0	0	0	0	-0	90	1
LeftShoulder	0	0	0	0	0	0	1
LeftArm	0	0	0	0	0	0	1
LeftForeArm	0	0	0	0	0	0	1
LeftHand	0	0	0	0	0	0	1
RightShoulder	0	0	0	0	-0	180	1
RightArm	0	0	0	0	-0	180	1
RightForeArm	0	0	0	0	-0	180	1
RightHand	0	0	0	0	-0	180	1
LeftUpLeg	0	0	0	0	-0	-90	1
LeftLeg	0	0	0	0	-0	-90	1
LeftFoot	0	0	0	66.57146043	-66.57146043	-90	1
LeftToeBase	0	0	0	0	-90	0	1
RightUpLeg	0	0	0	0	-0	-90	1
RightLeg	0	0	0	0	-0	-90	1
RightFoot	0	0	0	66.57146043	-66.57146043	-90	1
RightToeBase	0	0	0	0	-90	0	1
[reference]
1	0	0	0	0	-0	0	1.0
2	0	0	0	0	-0	0	1.0
3	0	0	0	0	-0	0	1.0
4	0	0	0	0	-0	0	1.0
5	0	0	0	0	-0	0	1.0
6	0	0	0	0	-0	0	1.0
7	0	0	0	0	-0	0	1.0
8	0	0	0	0	-0	0	1.0
[Hips]
1	9.358189583	8.659879684	1.391360044	-2.698745728	-107.0156174	6.427124023	1.0
2	9.358189583	8.659879684	1.391360044	-2.651195765	-106.8304977	6.385768414	1.0
3	9.358189583	8.659879684	1.391360044	-2.746267796	-106.645752	6.369319916	1.0
4	9.358189583	8.659879684	1.391360044	-2.728596687	-106.5566025	5.996528625	1.0
5	9.358189583	8.659879684	1.391360044	-2.963679075	-106.4583817	6.190136433	1.0
6	9.358189583	8.659879684	1.391360044	-3.071657181	-106.2813568	6.386325836	1.0
7	9.358189583	8.659879684	1.391360044	-2.673095703	-106.083992	5.765838623	1.0
8	9.358189583	8.659879684	1.391360044	-3.090488911	-105.7480087	6.23417902	1.0
[Spine]
1	0	0.7457100153	0	-15.73710823	1.424234271	-91.06856537	1.0
2	0	0.7457100153	0	-15.77681923	1.432230353	-91.0986557	1.0
3	0	0.7457100153	0	-15.82773685	1.29334867	-90.97481537	1.0
4	0	0.7457100153	0	-15.70086384	1.246066809	-90.87266541	1.0
5	0	0.7457100153	0	-15.63470745	1.247851729	-90.88148499	1.0
6	0	0.7457100153	0	-15.44895554	1.397409797	-91.24081421	1.0
7	0	0.7457100153	0	-15.5064106	1.155177116	-91.03067017	1.0
8	0	0.7457100153	0	-15.12688446	1.198241711	-91.19625854	1.0
[Spine1]
1	0	2.140589952	0	13.40630245	0.287335217	2.023452997	1.0
2	0	2.140589952	0	13.43769169	0.288503319	1.996444106	1.0
3	0	2.140589952	0	13.49717617	0.2930251062	2.005608797	1.0
4	0	2.140589952	0	14.15885925	0.2347148955	1.457465649	1.0
5	0	2.140589952	0	14.17831802	0.2507178187	1.632997036	1.0
6	0	2.140589952	0	13.8387413	0.2657981217	2.070105076	1.0
7	0	2.140589952	0	13.97336864	0.2754339576	1.890440106	1.0
8	0	2.140589952	0	14.38618469	0.1519121826	1.790485144	1.0
[Neck]
1	0	2.32246995	0	-11.12685013	11.44983196	-88.92904663	1.0
2	0	2.32246995	0	-11.34334278	11.36614132	-88.98510742	1.0
3	0	2.32246995	0	-11.2983799	11.34158897	-89.19749451	1.0
4	0	2.32246995	0	-11.39677525	11.36411572	-89.37097168	1.0
5	0	2.32246995	0	-11.56040192	11.34147072	-89.4479599	1.0
6	0	2.32246995	0	-11.47197628	11.12309074	-89.27038574	1.0
7	0	2.32246995	0	-11.64249039	11.21080208	-89.49232483	1.0
8	0	2.32246995	0	-11.70482445	11.04448032	-89.47293091	1.0
[Head]
1	0	1.409579992	0.1818799973	-2.127071381	4.589136124	-93.24963379	1.0
2	0	1.409579992	0.1818799973	-1.717721939	4.518606186	-93.25276947	1.0
3	0	1.409579992	0.1818799973	-2.286226511	4.475616932	-93.21820068	1.0
4	0	1.409579992	0.1818799973	-2.37034297	4.495449066	-93.1607132	1.0
5	0	1.409579992	0.1818799973	-2.352264881	4.476196766	-93.16873169	1.0
6	0	1.409579992	0.1818799973	-2.20904398	4.274160385	-93.41296387	1.0
7	0	1.409579992	0.1818799973	-2.374046803	4.356233597	-93.30957031	1.0
8	0	1.409579992	0.1818799973	-2.414818287	4.187294006	-93.37240601	1.0
[LeftShoulder]
1	0.3668199778	1.946700096	-0.02662999928	-15.98193645	-13.23616982	-3.977058411	1.0
2	0.3668199778	1.946700096	-0.02662999928	-16.0693512	-13.21625137	-3.954356432	1.0
3	0.3668199778	1.946700096	-0.02662999928	-16.3338623	-13.39417744	-3.957929373	1.0
4	0.3668199778	1.946700096	-0.02662999928	-16.58470345	-12.84305	-3.665261745	1.0
5	0.3668199778	1.946700096	-0.02662999928	-16.63750458	-12.9911747	-3.736890793	1.0
6	0.3668199778	1.946700096	-0.02662999928	-16.22103119	-13.29859734	-4.049109459	1.0
7	0.3668199778	1.946700096	-0.02662999928	-16.39960098	-13.47399807	-4.05709219	1.0
8	0.3668199778	1.946700096	-0.02662999928	-16.59697723	-13.11830711	-3.97400856	1.0
[LeftArm]
1	1.140689969	0	0	40.75278473	15.22871494	-74.55587006	1.0
2	1.140689969	0	0	40.97978592	15.43056107	-74.57365417	1.0
3	1.140689969	0	0	40.68537903	15.82136154	-74.55732727	1.0
4	1.140689969	0	0	41.24798203	15.89680481	-74.74015808	1.0
5	1.140689969	0	0	40.79036331	16.03977203	-74.74066162	1.0
6	1.140689969	0	0	41.14149094	15.87392139	-74.8093338	1.0
7	1.140689969	0	0	40.81289673	16.1607399	-74.9061203	1.0
8	1.140689969	0	0	40.70275879	16.19748878	-75.075737	1.0
[LeftForeArm]
1	2.749800205	0	0	-13.40660572	-12.82755566	1.850308657	1.0
2	2.749800205	0	0	-13.62050629	-12.70236588	2.001814842	1.0
3	2.749800205	0	0	-13.55371952	-12.63526344	1.905794859	1.0
4	2.749800205	0	0	-13.77643299	-12.62519264	2.035729885	1.0
5	2.749800205	0	0	-13.54794884	-12.708148	1.816004753	1.0
6	2.749800205	0	0	-13.74274445	-12.66791439	1.998481274	1.0
7	2.749800205	0	0	-13.67716694	-12.7879343	1.920350909	1.0
8	2.749800205	0	0	-14.56369305	-13.13713455	1.565447211	1.0
[LeftHand]
1	2.295179844	0	0	-13.09146595	-4.12404871	-2.971704483	1.0
2	2.295179844	0	0	-13.28199959	-4.195445538	-3.154025078	1.0
3	2.295179844	0	0	-13.2226162	-4.334030628	-3.171470404	1.0
4	2.295179844	0	0	-13.42864227	-4.171960831	-3.360889435	1.0
5	2.295179844	0	0	-13.2193327	-4.147010326	-3.485533953	1.0
6	2.295179844	0	0	-13.39210892	-4.093305588	-3.599086761	1.0
7	2.295179844	0	0	-13.3314991	-4.341510773	-3.437456131	1.0
8	2.295179844	0	0	-14.37411976	-4.72331953	-0.2098280638	1.0
[RightShoulder]
1	-0.3601199985	1.946700096	-0.02662999928	-6.47371769	3.19453764	177.5520325	1.0
2	-0.3601199985	1.946700096	-0.02662999928	-6.474664688	3.164020538	177.5639648	1.0
3	-0.3601199985	1.946700096	-0.02662999928	-6.607796192	3.419266701	177.5541534	1.0
4	-0.3601199985	1.946700096	-0.02662999928	-6.695191383	3.605204582	177.5476074	1.0
5	-0.3601199985	1.946700096	-0.02662999928	-6.762476921	3.610121727	177.5243988	1.0
6	-0.3601199985	1.946700096	-0.02662999928	-6.593653679	3.187758446	177.578537	1.0
7	-0.3601199985	1.946700096	-0.02662999928	-6.331033707	3.384220123	177.3973389	1.0
8	-0.3601199985	1.946700096	-0.02662999928	-6.411710739	3.24884963	177.5306091	1.0
[RightArm]
1	-1.140689969	0	0	53.79917145	-2.93705678	-98.39376068	1.0
2	-1.140689969	0	0	53.73098755	-3.045350075	-98.27996826	1.0
3	-1.140689969	0	0	53.61177444	-3.098560333	-98.08589935	1.0
4	-1.140689969	0	0	53.39710999	-3.049977303	-98.07136536	1.0
5	-1.140689969	0	0	53.58850861	-3.005371809	-98.02951813	1.0
6	-1.140689969	0	0	53.98996353	-3.0149827	-98.23455048	1.0
7	-1.140689969	0	0	53.59630585	-2.424577713	-98.09104919	1.0
8	-1.140689969	0	0	53.57001114	-2.560810089	-98.37471008	1.0
[RightForeArm]
1	-2.749800205	0	0	-3.448398829	11.2785511	176.6199341	1.0
2	-2.749800205	0	0	-3.458968639	11.24177456	176.7185211	1.0
3	-2.749800205	0	0	-3.577735424	11.18506813	176.747467	1.0
4	-2.749800205	0	0	-3.445670128	11.26853752	176.9826355	1.0
5	-2.749800205	0	0	-3.475646734	11.30558491	176.8984222	1.0
6	-2.749800205	0	0	-3.624662161	11.41211796	176.708847	1.0
7	-2.749800205	0	0	-3.45212698	11.49469566	176.8083954	1.0
8	-2.749800205	0	0	-3.514483929	11.56264496	176.7259521	1.0
[RightHand]
1	-2.295179844	0	0	-3.384270906	6.630150318	175.3487854	1.0
2	-2.295179844	0	0	-3.393058538	6.654637337	175.5817871	1.0
3	-2.295179844	0	0	-3.504521847	6.558402538	175.7222137	1.0
4	-2.295179844	0	0	-3.38903451	6.600133419	175.8225555	1.0
5	-2.295179844	0	0	-3.410861254	6.644672871	175.8302612	1.0
6	-2.295179844	0	0	-3.550717354	6.711598396	175.6551971	1.0
7	-2.295179844	0	0	-3.399334431	6.654801846	175.3862	1.0
8	-2.295179844	0	0	-3.452510834	6.634522438	175.3534546	1.0
[LeftUpLeg]
1	0.9094099998	0	0	5.883556843	7.028018475	90.80606842	1.0
2	0.9094099998	0	0	5.839818954	6.924586296	90.67004395	1.0
3	0.9094099998	0	0	5.890408516	6.713106155	90.65447998	1.0
4	0.9094099998	0	0	6.189080715	6.546722889	90.49201202	1.0
5	0.9094099998	0	0	6.23154974	6.633225918	90.44377136	1.0
6	0.9094099998	0	0	5.808191299	6.691699028	90.41163635	1.0
7	0.9094099998	0	0	5.5504179	6.235912323	90.27783203	1.0
8	0.9094099998	0	0	5.617083073	5.842877388	90.06756592	1.0
[LeftLeg]
1	0	-4.498080254	0	0.5071790814	-3.429089069	86.97281647	1.0
2	0	-4.498080254	0	0.6649661064	-3.220884323	87.11695862	1.0
3	0	-4.498080254	0	0.5596215725	-3.279113054	87.08544922	1.0
4	0	-4.498080254	0	0.4289672971	-3.191798449	87.15912628	1.0
5	0	-4.498080254	0	0.6482278705	-3.174346685	87.24011993	1.0
6	0	-4.498080254	0	1.068286061	-3.082499981	87.33779907	1.0
7	0	-4.498080254	0	1.372102499	-3.079452038	87.30363464	1.0
8	0	-4.498080254	0	1.640652657	-3.094873428	87.36759949	1.0
[LeftFoot]
1	0	-3.729400158	0	-77.2460022	110.7806931	-31.05392456	1.0
2	0	-3.729400158	0	-78.71450806	112.9109192	-33.33760452	1.0
3	0	-3.729400158	0	-77.63034058	110.9411469	-31.67113304	1.0
4	0	-3.729400158	0	-77.63383484	110.6473007	-31.54556656	1.0
5	0	-3.729400158	0	-78.67567444	111.3039398	-32.74972534	1.0
6	0	-3.729400158	0	-79.90651703	112.7987366	-34.59131622	1.0
7	0	-3.729400158	0	-79.56907654	111.9165421	-33.57231903	1.0
8	0	-3.729400158	0	-79.70796967	112.5796356	-33.65826416	1.0
[LeftToeBase]
1	0	-0.5911099911	1.364109993	0	0	0	1.0
2	0	-0.5911099911	1.364109993	0	0	0	1.0
3	0	-0.5911099911	1.364109993	0	0	0	1.0
4	0	-0.5911099911	1.364109993	0	0	0	1.0
5	0	-0.5911099911	1.364109993	0	0	0	1.0
6	0	-0.5911099911	1.364109993	0	0	0	1.0
7	0	-0.5911099911	1.364109993	0	0	0	1.0
8	0	-0.5911099911	1.364109993	0	0	0	1.0
[RightUpLeg]
1	-0.9094099998	0	0	-0.9171605706	0.9960244298	92.33029938	1.0
2	-0.9094099998	0	0	-0.8724803925	0.8702424169	92.25871277	1.0
3	-0.9094099998	0	0	-0.8726539612	0.7592908144	92.24191284	1.0
4	-0.9094099998	0	0	-0.6001319289	0.6254364848	92.0798645	1.0
5	-0.9094099998	0	0	-0.5268639326	0.5485127568	92.07242584	1.0
6	-0.9094099998	0	0	-0.8341933489	0.3326390386	92.15169525	1.0
7	-0.9094099998	0	0	-0.924462378	0.1912605911	92.03932953	1.0
8	-0.9094099998	0	0	-0.6782934666	0.05153746158	91.85507202	1.0
[RightLeg]
1	0	-4.498080254	0	5.117043972	-1.911103725	88.60809326	1.0
2	0	-4.498080254	0	5.047386169	-0.3475502431	88.7773819	1.0
3	0	-4.498080254	0	5.237550735	-1.981298447	88.58411407	1.0
4	0	-4.498080254	0	5.257537842	-1.928891659	88.60098267	1.0
5	0	-4.498080254	0	5.328187466	-1.946520805	88.54192352	1.0
6	0	-4.498080254	0	5.545554638	-1.971767902	88.4458313	1.0
7	0	-4.498080254	0	5.654738903	-1.996728182	88.46165466	1.0
8	0	-4.498080254	0	5.658341408	-2.149957657	88.47849274	1.0
[RightFoot]
1	0	-3.729400158	0	51.70675278	66.26316071	88.65293884	1.0
2	0	-3.729400158	0	48.52699661	65.50745392	85.09705353	1.0
3	0	-3.729400158	0	51.73007965	66.13162994	88.61248779	1.0
4	0	-3.729400158	0	51.43371964	66.17008972	88.56050873	1.0
5	0	-3.729400158	0	51.38258362	66.12875366	88.57505035	1.0
6	0	-3.729400158	0	51.8132782	65.96285248	88.75954437	1.0
7	0	-3.729400158	0	51.4898262	65.95472717	88.61112213	1.0
8	0	-3.729400158	0	51.29319382	65.91233826	88.59313202	1.0
[RightToeBase]
1	0	-0.5911099911	1.364109993	0	0	0	1.0
2	0	-0.5911099911	1.364109993	0	0	0	1.0
3	0	-0.5911099911	1.364109993	0	0	0	1.0
4	0	-0.5911099911	1.364109993	0	0	0	1.0
5	0	-0.5911099911	1.364109993	0	0	0	1.0
6	0	-0.5911099911	1.364109993	0	0	0	1.0
7	0	-0.5911099911	1.364109993	0	0	0	1.0
8	0	-0.5911099911	1.364109993	0	0	0	1.0
[EndOfFile]
